<?xml version="1.0" encoding="utf-8"?>
<!-- Generator: Adobe Illustrator 16.0.0, SVG Export Plug-In . SVG Version: 6.00 Build 0)  -->
<!DOCTYPE svg PUBLIC "-//W3C//DTD SVG 1.1//EN" "http://www.w3.org/Graphics/SVG/1.1/DTD/svg11.dtd">
<svg version="1.1" id="Layer_1" xmlns="http://www.w3.org/2000/svg" xmlns:xlink="http://www.w3.org/1999/xlink" x="0px" y="0px"
	 width="107.08px" height="107.08px" viewBox="0 0 107.08 107.08" enable-background="new 0 0 107.08 107.08" xml:space="preserve">
<path fill="#FFFFFF" d="M105.741,107.08H0V1.34h105.741V107.08z M5.749,101.332h94.243V7.09H5.749V101.332z"/>
<path fill="#FFFFFF" d="M31.364,61.696c0-2.044-0.503-3.457-1.512-4.242c-1.008-0.782-2.464-1.175-4.367-1.175v-4.2
	c1.933,0,3.396-0.413,4.389-1.239c0.994-0.825,1.491-2.163,1.491-4.01v-5.376c0-2.127,0.553-3.793,1.659-4.997
	c1.105-1.204,2.751-1.807,4.935-1.807h6.299v4.621h-3.359c-0.812,0-1.491,0.056-2.037,0.167c-0.545,0.112-0.987,0.322-1.322,0.629
	c-0.336,0.309-0.575,0.736-0.714,1.282c-0.141,0.545-0.211,1.253-0.211,2.121v4.787c0,1.848-0.503,3.213-1.511,4.094
	c-1.008,0.882-2.324,1.395-3.948,1.533v0.421c1.595,0.111,2.904,0.649,3.927,1.617c1.021,0.965,1.532,2.357,1.532,4.179v4.786
	c0,0.868,0.07,1.576,0.211,2.121c0.139,0.546,0.378,0.973,0.714,1.281c0.335,0.308,0.783,0.518,1.343,0.63s1.246,0.169,2.058,0.169
	h3.317v4.619h-6.299c-2.101,0-3.724-0.561-4.872-1.679c-1.148-1.122-1.722-2.815-1.722-5.084V61.696z"/>
<path fill="#FFFFFF" d="M75.334,66.945c0,2.268-0.574,3.961-1.723,5.083c-1.147,1.117-2.771,1.68-4.872,1.68h-6.3v-4.62h3.318
	c0.812,0,1.498-0.056,2.059-0.169c0.561-0.111,1.008-0.322,1.344-0.63c0.335-0.308,0.573-0.734,0.713-1.28
	c0.142-0.546,0.212-1.255,0.212-2.122v-4.786c0-1.82,0.509-3.214,1.532-4.179c1.022-0.967,2.331-1.504,3.927-1.616v-0.421
	c-1.624-0.14-2.941-0.651-3.949-1.534c-1.008-0.881-1.51-2.245-1.51-4.094v-4.787c0-0.868-0.078-1.574-0.232-2.12
	c-0.153-0.546-0.399-0.973-0.735-1.282c-0.335-0.309-0.776-0.517-1.322-0.629c-0.547-0.113-1.21-0.168-1.995-0.168h-3.36v-4.621h6.3
	c2.186,0,3.828,0.604,4.936,1.807c1.106,1.204,1.659,2.87,1.659,4.998v5.376c0,1.847,0.496,3.184,1.49,4.01s2.456,1.238,4.389,1.238
	v4.2c-1.904,0-3.359,0.393-4.368,1.177c-1.008,0.783-1.511,2.198-1.511,4.241V66.945z"/>
</svg>
